C:\Users\israe\Dropbox\PhDWork\ExperimentalData/subject1/100/P1S100W01_EMG(MVC)_40ms.mot
nRows=23
nColumns=16

name C:\Users\israe\Dropbox\PhDWork\ExperimentalData/subject1/100/P1S100W01_EMG(MVC)_40ms.mot
datacolumns 16
datarows 23
range 1.8850000000 1.9070000000
endheader
time	BF	ST	VL	VM	RF	TFL	GE	GA	TA	GL	GM	SO	ES	MF	VI_a
        1.8850000000	        0.0755606467	        0.0456416849	        0.0373399495	        0.0567527328	        0.0236397054	        0.0359197065	        0.0896426388	        0.0344793670	        0.0515767191	        0.0402443981	        0.0280255514	        0.0368733253	        0.8637465042	        0.9006566333	        0.0470463412	
        1.8860000000	        0.0756522837	        0.0458789351	        0.0372065682	        0.0557092949	        0.0235623418	        0.0357890774	        0.0889968464	        0.0347663585	        0.0497808009	        0.0405180695	        0.0280531383	        0.0371726547	        0.8641119452	        0.9008358794	        0.0464579316	
        1.8870000000	        0.0757253991	        0.0461211651	        0.0370722367	        0.0546945118	        0.0234862941	        0.0356607746	        0.0883603885	        0.0350378110	        0.0480566962	        0.0408019016	        0.0280802339	        0.0374828529	        0.8644775637	        0.9010143588	        0.0458833742	
        1.8880000000	        0.0757803821	        0.0463677521	        0.0369373913	        0.0537096037	        0.0234113697	        0.0355348329	        0.0877339658	        0.0352931648	        0.0464036172	        0.0410955441	        0.0281068297	        0.0378034355	        0.8648424142	        0.9011920311	        0.0453234975	
        1.8890000000	        0.0758179503	        0.0466179695	        0.0368025358	        0.0527557382	        0.0233372925	        0.0354113014	        0.0871182657	        0.0355319390	        0.0448207053	        0.0413986015	        0.0281328801	        0.0381339340	        0.8652059437	        0.9013689846	        0.0447791370	
        1.8900000000	        0.0758388586	        0.0468709631	        0.0366682613	        0.0518339261	        0.0232637243	        0.0352902449	        0.0865138815	        0.0357536975	        0.0433070084	        0.0417106205	        0.0281582858	        0.0384738636	        0.8655679466	        0.9015453850	        0.0442510937	
        1.8910000000	        0.0758436901	        0.0471257429	        0.0365352251	        0.0509449513	        0.0231902913	        0.0351717551	        0.0859212954	        0.0359580358	        0.0418614758	        0.0420310933	        0.0281829111	        0.0388226868	        0.8659285180	        0.9017214254	        0.0437400882	
        1.8920000000	        0.0758328492	        0.0473811974	        0.0364040896	        0.0500893661	        0.0231166109	        0.0350559632	        0.0853409200	        0.0361446017	        0.0404829691	        0.0423594469	        0.0282065998	        0.0391797860	        0.8662879944	        0.9018972161	        0.0432467279	
        1.8930000000	        0.0758066220	        0.0476361082	        0.0362754549	        0.0492675097	        0.0230423199	        0.0349430169	        0.0847730452	        0.0363131342	        0.0391702360	        0.0426950267	        0.0282291567	        0.0395444452	        0.8666468890	        0.9020725801	        0.0427714823	
        1.8940000000	        0.0757653504	        0.0478892181	        0.0361498244	        0.0484795408	        0.0229670792	        0.0348330515	        0.0842177317	        0.0364634908	        0.0379218692	        0.0430371099	        0.0282503342	        0.0399158502	        0.8670056831	        0.9022470427	        0.0423146826	
        1.8950000000	        0.0757096546	        0.0481393921	        0.0360276391	        0.0477254845	        0.0228905394	        0.0347261985	        0.0836747827	        0.0365956434	        0.0367363059	        0.0433849260	        0.0282698519	        0.0402931031	        0.8673643537	        0.9024201718	        0.0418765618	
        1.8960000000	        0.0756404839	        0.0483857216	        0.0359093542	        0.0470052581	        0.0228123097	        0.0346226159	        0.0831437751	        0.0367096312	        0.0356118695	        0.0437376565	        0.0282874174	        0.0406752359	        0.8677221823	        0.9025918856	        0.0414573061	
        1.8970000000	        0.0755589798	        0.0486274575	        0.0357954622	        0.0463186846	        0.0227319712	        0.0345224875	        0.0826241371	        0.0368054811	        0.0345468333	        0.0440944188	        0.0283027313	        0.0410612178	        0.8680782696	        0.9027624846	        0.0410570734	
        1.8980000000	        0.0754663272	        0.0488639487	        0.0356864428	        0.0456655469	        0.0226491224	        0.0344259818	        0.0821153029	        0.0368831484	        0.0335394694	        0.0444542296	        0.0283154964	        0.0414499559	        0.8684321124	        0.9029325502	        0.0406759949	
        1.8990000000	        0.0753637000	        0.0490946808	        0.0355827136	        0.0450456498	        0.0225634222	        0.0343332365	        0.0816168216	        0.0369425182	        0.0325880670	        0.0448159808	        0.0283254354	        0.0418402746	        0.8687837229	        0.9031028141	        0.0403141817	
        1.9000000000	        0.0752522658	        0.0493192636	        0.0354846017	        0.0444588207	        0.0224746159	        0.0342443853	        0.0811282920	        0.0369834508	        0.0316909322	        0.0451784575	        0.0283322960	        0.0422308814	        0.8691335368	        0.9032740161	        0.0399717112	
        1.9010000000	        0.0751331878	        0.0495373213	        0.0353923113	        0.0439048978	        0.0223825518	        0.0341595682	        0.0806492328	        0.0370058279	        0.0308463830	        0.0455403630	        0.0283358419	        0.0426203503	        0.8694823023	        0.9034467877	        0.0396486045	
        1.9020000000	        0.0750076358	        0.0497484024	        0.0353059015	        0.0433837778	        0.0222871906	        0.0340788985	        0.0801790058	        0.0370095773	        0.0300527356	        0.0459003495	        0.0283358520	        0.0430071463	        0.8698309557	        0.9036215104	        0.0393448396	
        1.9030000000	        0.0748767960	        0.0499519423	        0.0352252915	        0.0428954947	        0.0221885969	        0.0340024452	        0.0797167686	        0.0369947040	        0.0293082792	        0.0462570853	        0.0283321309	        0.0433897176	        0.8701805099	        0.9037981267	        0.0390603931	
        1.9040000000	        0.0747418311	        0.0501472427	        0.0351502954	        0.0424402296	        0.0220869014	        0.0339302676	        0.0792614471	        0.0369613408	        0.0286112521	        0.0466093136	        0.0283245103	        0.0437666071	        0.8705318154	        0.9039761589	        0.0387952625	
        1.9050000000	        0.0746037904	        0.0503334807	        0.0350806611	        0.0420182092	        0.0219822543	        0.0338624578	        0.0788117991	        0.0369097832	        0.0279598680	        0.0469558467	        0.0283128218	        0.0441364859	        0.8708850767	        0.9041550404	        0.0385494351	
        1.9060000000	        0.0744635843	        0.0505098033	        0.0350160837	        0.0416295698	        0.0218748194	        0.0337991323	        0.0783665937	        0.0368404862	        0.0273523883	        0.0472955231	        0.0282968538	        0.0444981497	        0.8712396550	        0.9043343874	        0.0383228268	
        1.9070000000	        0.0743221000	        0.0506754893	        0.0349561918	        0.0412742979	        0.0217648080	        0.0337403750	        0.0779248200	        0.0367540224	        0.0267871606	        0.0476272121	        0.0282763497	        0.0448505706	        0.8715945696	        0.9045140190	        0.0381152449	
